<?xml version="1.0" encoding="utf-8"?>
<!-- Generator: Adobe Illustrator 23.0.5, SVG Export Plug-In . SVG Version: 6.00 Build 0)  -->
<svg version="1.1" xmlns="http://www.w3.org/2000/svg" xmlns:xlink="http://www.w3.org/1999/xlink" x="0px" y="0px"
	 viewBox="0 0 1000 200" style="enable-background:new 0 0 1000 200;" xml:space="preserve">
<style type="text/css">
	.st0{display:none;}
	.st1{display:inline;fill:#828282;stroke:#000000;stroke-miterlimit:10;}
	.st2{fill:#FFFFFF;}
	.st3{font-family:'HelveticaNeue-Roman';}
	.st4{font-size:17.1385px;}
	.st5{fill:#E5E5E5;}
	.st6{fill:none;stroke:#FFFFFF;stroke-width:0.2604;}
	.st7{fill:#1C388F;}
	.st8{fill:#A6A8AB;}
</style>
<g id="Layer_1" class="st0">
	<rect class="st1" width="1000" height="200"/>
</g>
<g id="IFAD">
	<g>
		<g>
			<path class="st2" d="M692,109.8h8.3V77.4H692V109.8z M706.2,109.8h7.9V97.4h9.4v-7.3h-9.4v-5.5h9.8v-7.3h-17.7V109.8z
				 M744.9,105.1l1.6,4.7h9l-12.9-32.4H736l-13,32.4h8.9l1.7-4.7H744.9z M739.2,87.5L739.2,87.5h0.1l3.3,11.1h-6.8L739.2,87.5z
				 M758.3,109.8h11.3c12.3,0,16.7-7.4,16.7-16.3c0-3.5-0.7-7-3-10.1c-4.2-6-10.7-6-14.3-6h-10.7V109.8z M766.6,84.7h3.6
				c3.7,0,5.3,1.5,6.3,3c1.2,1.8,1.6,4.2,1.6,6c0,4.6-1.7,8.9-7.9,8.9h-3.5V84.7z"/>
		</g>
	</g>
	<text transform="matrix(1 0 0 1 635.4628 142.8037)"><tspan x="0" y="0" class="st2 st3 st4">Enabling poor rural people</tspan><tspan x="0" y="18.9" class="st2 st3 st4">to overcome poverty</tspan></text>
	<g>
		<path class="st5" d="M671,58.7L671,58.7L671,58.7z"/>
		<path class="st5" d="M650.4,58.7L650.4,58.7L650.4,58.7z"/>
		<path class="st5" d="M660.7,58.8c-0.4-0.6-0.6-0.9-1.1-1.5c-0.5-0.5-0.8-0.7-1.4-1.1c-0.4-0.2-0.7-0.3-1.1-0.6
			c-0.5-0.3-0.8-0.5-1.2-0.8c-0.4-0.4-0.6-0.6-0.9-1.1c-0.4-0.6-0.7-1-1-1.7c-0.2-0.6-0.3-1-0.4-1.6c-0.1-0.7-0.1-1.1,0-1.7
			c0.1-0.5,0.1-0.8,0.3-1.3c0.1-0.3,0.1-0.5,0.3-0.7c0.1-0.2,0.2-0.4,0.4-0.6V36h0.6v10.3l0,0c0,0.6,0,0.9,0.1,1.4
			c0.1,0.5,0.2,0.8,0.5,1.3c0.3,0.5,0.6,0.7,1.1,1.1c0.3,0.2,0.4,0.3,0.7,0.4c0.2,0,0.4,0,0.4,0c-0.1-0.5-0.2-1.1-0.2-1.7
			c0-0.7,0.1-1.3,0.3-1.8V36h0h0.6v9.9l0,0l0-0.1l0,0c0.2-0.2,0.2-0.3,0.4-0.5c0.2-0.1,0.3-0.2,0.4-0.3c0.2-0.1,0.3-0.1,0.5-0.2
			c0.2-0.1,0.6-0.1,0.6-0.1s0.4,0,0.6,0.1c0.2,0,0.3,0.1,0.5,0.2c0.2,0.1,0.3,0.2,0.4,0.3c0.2,0.2,0.3,0.3,0.4,0.5l0,0l0,0.1l0,0V36
			h0.6h0v10.9c0.2,0.5,0.3,1.1,0.3,1.8c0,0.6-0.1,1.2-0.2,1.7c0,0,0.2,0,0.4,0c0.3-0.1,0.5-0.2,0.7-0.4c0.5-0.3,0.7-0.6,1.1-1.1
			c0.3-0.4,0.4-0.7,0.5-1.3c0.1-0.6,0.1-0.9,0.1-1.4l0,0V36h0.6v10.1c0.2,0.2,0.3,0.3,0.4,0.6c0.2,0.3,0.2,0.4,0.3,0.7
			c0.2,0.5,0.2,0.8,0.3,1.3c0.1,0.7,0.1,1.1,0,1.7c-0.1,0.6-0.2,1-0.4,1.6c-0.3,0.7-0.5,1.1-1,1.7c-0.3,0.4-0.5,0.7-0.9,1.1
			c-0.4,0.4-0.7,0.5-1.2,0.8c-0.4,0.2-0.7,0.3-1.1,0.6c-0.6,0.4-0.9,0.6-1.4,1.1C661.3,57.8,661.1,58.2,660.7,58.8z"/>
		<path class="st5" d="M660.7,67.5c-0.8-1.4-2-2.6-3.3-3.6c0,0-0.5-0.4-1.9-1.1c-1.1-0.6-1.8-1.4-2.4-2.1c-3.6-5.3-1.6-10-1.3-9.9
			l0,0l0,0V36l0,0h0.6v15.9l0,0c0,0-0.3,1.8,2.5,3.1c1.8,0.8,4.2,2.9,5.8,5.7c1.6-2.8,4-4.9,5.8-5.7c2.8-1.2,2.5-3.1,2.5-3.1l0,0V36
			h0.6l0,0v14.7l0,0l0,0c0.4-0.1,2.3,4.7-1.3,9.9c-0.6,0.7-1.3,1.5-2.4,2.1c-1.3,0.7-1.8,1.1-1.8,1.1
			C662.7,64.8,661.5,66,660.7,67.5z"/>
		<path class="st5" d="M660.7,76.2c0,0-0.9-2.9-4.2-4.1c-11.2-4.2-7.2-13-6.8-13.4V36h0.6v22.7l0,0c0,0.3,0.1,0.9,0.3,1.6
			c0.3,0.9,0.9,1.8,1.5,2.2c1.4,0.8,2.3,1,3.6,1.7c1.2,0.6,2.6,1.6,4.9,4.2c2.3-2.6,3.7-3.6,4.9-4.2c1.3-0.7,2.2-0.9,3.6-1.7
			c0.6-0.3,1.2-1.3,1.5-2.2c0.3-0.7,0.3-1.4,0.3-1.6l0,0V36h0.6v22.7c0.4,0.4,4.5,9.2-6.8,13.4C661.6,73.4,660.7,76.2,660.7,76.2z"
			/>
		<path class="st5" d="M644.3,109.7H637v-6.4h7.3c3.2,0,5.8-2.6,5.8-5.8V77.4h6.2l0,20.4C656.3,104.4,650.9,109.7,644.3,109.7z"/>
		<path class="st5" d="M677.1,109.7h7.3v-6.4h-7.2c-3.2,0-5.8-2.6-5.8-5.8V77.4h-6.2l0,20.4C665.2,104.4,670.5,109.7,677.1,109.7z"
			/>
		<path class="st5" d="M644.2,117.5H637v-6.4h7.3c8.2,0,13.3-6.4,13.3-13.5V77.4h6.2l0,20.4C663.8,108.5,655.3,117.5,644.2,117.5z"
			/>
	</g>
</g>
<g id="DTI">
	<g>
		<g>
			<polygon class="st2" points="544.6,135.4 427.9,145.6 427.9,134.7 544.6,134.7 544.6,135.4 			"/>
			<polygon class="st6" points="427.9,145.6 544.6,135.4 544.6,146.3 427.9,146.3 427.9,145.6 			"/>
		</g>
		<path class="st2" d="M525,75.8h-14V57.7l-19.4,0l-0.1,18.2h-13V57.7H459v22.5c-3.1-3.2-7.2-5.4-12-5.4
			c-15.2,0-20.1,14.2-20.1,27.8c0,13.1,5,27.3,19.5,27.3c6.3,0,10.6-2.3,13.4-8.1h0.2v7.1h18.6V89.3h13.2v17.1
			c0,5.7-0.9,12.9,3,17.3c3.8,4.4,7.7,5.2,14.1,5.4l12.3-0.2v-15.1c0,0-3.7-0.1-5.6-0.1c-4.6,0-4.2-3.8-4.2-7.6V89.3H525v39.5h19.5
			v-53H525L525,75.8z M457.8,113.4c-1.1,1.8-2.4,2.7-4.3,2.7c-6.1,0-6.4-8.3-6.4-13c0-2.9,0.4-7,1-9.9c0.6-3.2,2.1-5.6,5.5-5.6
			c1.6,0,3.4,0.7,4.2,2.1c1.3,1.7,1.2,4.2,1.2,6.2v10.7C459,109.2,459.2,111.1,457.8,113.4L457.8,113.4z"/>
		<polygon class="st7" points="546.1,54.4 546,54.3 546.1,54.4 		"/>
		<path class="st2" d="M535.2,36c-9.2,0-16.7,7.8-16.7,17.5c0,9.7,7.5,17.5,16.7,17.5c9.2,0,16.6-7.8,16.6-17.5
			C551.9,43.9,544.4,36,535.2,36z M546.5,50.7l1,0.8l-0.1,0.6l0.6,0.9l0.4,1.9l-0.9,0l-0.4-0.8l-0.3-0.2l0,0l0,0.7l0.8,0.8l0.5,1.3
			l-0.9,0.2l0,0.7l-1-0.3l-0.5-1l0.4-0.3l-0.3-0.7l-0.4,0.4l-0.9-0.1l-0.5-2.3l0.6-0.6l-0.7-0.4l-0.2-1.4L546.5,50.7z M543.7,55.5
			l0.4,1.9l-0.9,1.5l0.1,1.4l-0.7,0.6l-0.3-1.3l0.8-4L543.7,55.5z M529.5,41l0.9,0.6l0.2-3.4l0.8-1l3.9,0l0.5-0.5l0.6,0.4l-0.6,0.6
			l0.8,1.1l0.1,1.4l-2.6,1.7l1.3,3.6l1,0.1l0-0.5l1.6-0.1l1.4,1.2l0.7-0.6l1.6,0.8l0.1,0.5l-0.6,0.1l1.5,1.6l-0.7,1.5l0.9,1.1
			l-1.2,0.8l-0.8-1l-0.6,0.8l-0.6-0.1L540,51l-0.3-0.3l0.3-1.4l-1.5-1.2l-0.1,0.6l-3.1-1.9l-2.2,0.5l-0.4-0.7l-0.9,0.2l-2.9-4.7
			L529.5,41z M541.2,60.2l-0.3,0.8l-3.2-1.2l0-1.2l1-0.6l0.3-1.5l1.7-1.3L542,56l-1.4,1.7l-0.1,2.3L541.2,60.2z M528.6,57.7
			l-0.9,0.2l0.1,0.7l-2.7,2l-0.9-1l5.1-4.4l-0.3-0.7l0.6-1.7h0.7l0.4,1.9l0.5,0.5L528.6,57.7z M532.3,51.8l-0.2-1.2l-0.8-0.8l0-1
			l3.4,0.1l0.6,1.3l-1.1,2.7L532.3,51.8z M534.6,56.8l0.2-3.5l0.6-0.5l1.4,0.7l2.5-0.3l0.4,0.8l-2.6,2l-0.9,0l-0.9,1.1L534.6,56.8z
			 M543.2,67.4l-0.2-1.4l0.8-0.9l-0.6-0.7l-1.5,0.1l-1.5,0.8l-0.7-0.2l-0.4-0.4l-1.5,2.2l-1.5-0.1l0.7-1.2l-0.5-0.4l0.5-0.6l2.9-1.1
			l0.2-1.4l2.4-0.1l1.2,1l0.8-1.1l1.1,0l0-1.9l0.8,0l0.5,0.7l1.1-0.8l-0.3-1.1l0.9-1.7l0.7,0.6l-0.5,0.6l1,1.2l-2.1,3.7L543.2,67.4z
			"/>
		<g>
			<path class="st2" d="M429.4,156.2v-2.3h0.9c0.3,0,0.6,0,0.9,0.2c0.2,0.2,0.3,0.6,0.3,0.9c0,0.3-0.1,0.6-0.2,0.8
				c-0.3,0.4-0.6,0.4-0.9,0.4H429.4L429.4,156.2z M429.4,157.7h1c0.7,0,1.3,0,1.9-0.6c0.5-0.5,0.7-1.4,0.7-2.2
				c0-0.9-0.3-1.7-0.9-2.2c-0.5-0.5-1.1-0.5-1.8-0.5h-2.5v8.7h1.5V157.7L429.4,157.7z"/>
			<polygon class="st2" points="445.2,161 443.6,161 443.6,157.4 441.6,157.4 441.6,161 440,161 440,152.3 441.6,152.3 441.6,155.7 
				443.6,155.7 443.6,152.3 445.2,152.3 445.2,161 			"/>
			<polygon class="st2" points="454.2,161 452.7,161 452.7,152.3 454.2,152.3 454.2,161 			"/>
			<polygon class="st2" points="465.9,159.2 465.9,161 461.7,161 461.7,152.3 463.2,152.3 463.2,159.2 465.9,159.2 			"/>
			<polygon class="st2" points="474.3,161 472.8,161 472.8,152.3 474.3,152.3 474.3,161 			"/>
			<path class="st2" d="M483.4,156.2v-2.3h0.9c0.3,0,0.6,0,0.8,0.2c0.2,0.2,0.3,0.6,0.3,0.9c0,0.3-0.1,0.6-0.2,0.8
				c-0.3,0.4-0.6,0.4-0.9,0.4H483.4L483.4,156.2z M483.4,157.7h1c0.7,0,1.3,0,1.9-0.6c0.5-0.5,0.7-1.4,0.7-2.2
				c0-0.9-0.3-1.7-0.9-2.2c-0.6-0.5-1.2-0.5-1.8-0.5h-2.5v8.7h1.5V157.7L483.4,157.7z"/>
			<path class="st2" d="M495.6,156.2v-2.3h0.9c0.3,0,0.6,0,0.8,0.2c0.2,0.2,0.3,0.6,0.3,0.9c0,0.3-0.1,0.6-0.2,0.8
				c-0.3,0.4-0.6,0.4-0.9,0.4H495.6L495.6,156.2z M495.6,157.7h1c0.7,0,1.3,0,1.9-0.6c0.5-0.5,0.7-1.4,0.7-2.2
				c0-0.9-0.3-1.7-0.9-2.2c-0.6-0.5-1.1-0.5-1.8-0.5h-2.5v8.7h1.5V157.7L495.6,157.7z"/>
			<polygon class="st2" points="507.8,161 506.3,161 506.3,152.3 507.8,152.3 507.8,161 			"/>
			<polygon class="st2" points="520.5,161 519.1,161 516.6,155.1 516.6,155.1 516.6,161 515.4,161 515.4,152.3 517,152.3 
				519.3,157.4 519.3,157.4 519.3,152.3 520.5,152.3 520.5,161 			"/>
			<polygon class="st2" points="529.5,153.9 529.5,155.7 532,155.7 532,157.3 529.5,157.3 529.5,159.3 532.7,159.3 532.7,161 
				527.9,161 527.9,152.3 532.7,152.3 532.7,153.9 529.5,153.9 			"/>
			<path class="st2" d="M543.1,154.8c-0.2-0.7-0.6-1-1.1-1c-0.4,0-0.9,0.1-0.9,0.8c0,0.6,0.6,0.8,1,0.9c0.5,0.1,1.3,0.3,1.7,0.7
				c0.5,0.5,0.9,1.2,0.9,2.1c0,0.8-0.3,1.7-0.8,2.2c-0.5,0.5-1.3,0.7-1.9,0.7c-1.2,0-2.4-0.7-2.7-2.4l1.4-0.4
				c0.2,0.9,0.7,1.2,1.4,1.2c0.4,0,1-0.2,1-0.9c0-0.7-0.8-0.9-1.2-1c-1.2-0.3-2.3-0.8-2.3-2.7c0-0.8,0.2-1.5,0.7-2
				c0.5-0.5,1-0.7,1.7-0.7c1.2,0,2.1,0.5,2.5,2L543.1,154.8L543.1,154.8z"/>
		</g>
	</g>
</g>
<g id="RAPID">
	<g>
		<g id="Layer_1-2">
			<path class="st2" d="M160,89.4l19.4,17.8c-0.3,0-0.5,0-0.7,0c-3.8,0-7.6,0-11.5,0c-0.4,0-0.7-0.1-0.9-0.4
				c-5.1-4.7-10.2-9.4-15.4-14.1c-2.5-2.3-5.1-4.7-7.6-7c-0.1-0.1-0.3-0.2-0.5-0.4c-0.1,1.5,0,3,0,4.4c0,1.5,0,2.9,0,4.3v13
				c-0.4,0.1-8.4,0.2-9,0V49.4c0.2,0,0.4,0,0.6,0c5.9,0,11.7,0,17.6,0c7.7,0.1,13.9,3.2,18.5,9.3c2.1,2.8,3.3,5.9,3.6,9.4
				c0.3,3.5-0.2,6.9-1.6,10.1c-1.3,2.8-3.2,5.1-5.6,7.1c-1.9,1.7-4.2,3-6.5,3.9C160.4,89.2,160.2,89.3,160,89.4z M142.9,82.4
				c0.2,0,0.4,0,0.5,0c2.8,0,5.6,0,8.4,0c0.7,0,1.3,0,2-0.1c3.9-0.5,7-2.3,9.4-5.5c2.9-3.9,3-9.4,0.2-13.4
				c-2.7-3.8-6.5-5.8-11.1-5.9c-2.9-0.1-5.9,0-8.8,0c-0.2,0-0.4,0-0.6,0L142.9,82.4z"/>
			<path class="st2" d="M280.5,107.2V49.4c0.1,0,0.3,0,0.4-0.1c4.9,0,9.8-0.1,14.8,0.1c10.6,0.4,19.1,5.1,25.3,13.7
				c2.7,3.7,4.1,7.9,4.5,12.4c0.4,4.3-0.1,8.5-1.7,12.5c-1.5,3.8-3.7,7-6.6,9.8c-3.4,3.4-7.4,5.9-12,7.5c-2.5,0.8-5,1.4-7.6,1.6
				c-1.4,0.1-2.7,0.2-4.1,0.2c-4.1,0-8.1,0-12.2,0L280.5,107.2z M289.5,99c0.2,0,0.4,0,0.6,0c1.3,0,2.6,0,4,0c1.6,0,3.2-0.1,4.8-0.4
				c4.3-0.8,8.1-2.8,11.3-5.8c4.4-4.1,6.6-9.1,6.5-15.2c-0.1-3.5-1-6.9-3.1-9.8c-4.6-6.6-10.9-10-18.9-10.2c-1.5,0-3,0-4.5,0
				c-0.2,0-0.4,0-0.6,0L289.5,99z"/>
			<path class="st8" d="M179.5,107v-0.7c0-3.1,0-6.2,0-9.3c0-0.5,0.2-0.7,0.6-1c5.1-2.6,10.3-5.2,15.4-7.8
				c6.3-3.2,12.6-6.4,18.9-9.6c0.2-0.1,0.3-0.2,0.6-0.4c-0.3-0.2-0.5-0.3-0.6-0.4c-3.6-1.8-7.3-3.7-10.9-5.5
				c-3.9-2-7.7-3.9-11.6-5.9c-4-2-7.9-4-11.9-6.1c-0.3-0.2-0.5-0.4-0.5-0.8c0-3.2,0-6.5,0-9.7c0-0.1,0-0.2,0-0.3c0,0,0,0,0.1,0
				c0,0,0,0,0.1,0c19.2,9.5,38.5,19,57.7,28.5c0.1,0,0.1,0.1,0.2,0.1L179.5,107z"/>
			<path class="st2" d="M223.5,49.3h0.7c5.8,0,11.7,0,17.5,0c7.1,0,13,2.7,17.6,8.1c2.8,3.2,4.3,6.9,4.6,11.1
				c0.3,4.4-0.6,8.5-3.1,12.1c-3.3,4.7-7.7,7.9-13.3,9.3c-1.9,0.5-3.8,0.7-5.8,0.7c-2.9,0-5.7,0-8.6,0h-0.7c0,0.3,0,0.5,0,0.8
				c0,5,0,10,0,15v0.7c-0.5,0.1-8.3,0.2-8.9,0c0-0.2,0-0.3,0-0.5c0-5.6,0-11.3,0-16.9c0-0.4,0.1-0.6,0.5-0.8
				c4.3-2.1,8.5-4.2,12.8-6.4c0.3-0.1,0.6-0.2,0.8-0.2c1.4,0,2.9,0,4.3,0c4.4-0.1,7.9-1.9,10.6-5.3c3.5-4.4,3.3-10.7-0.5-14.9
				c-2.3-2.5-5-4-8.4-4.5c-0.6-0.1-1.2-0.1-1.8-0.1c-3,0-5.9,0-8.9,0c-0.2,0-0.3,0-0.6,0c0,2.4,0,4.8,0,7.1c0,2.3,0,4.7,0,7
				c-0.4-0.1-8-3.7-8.9-4.3L223.5,49.3z"/>
			<path class="st2" d="M267,49.4h8.8c0.1,0.4,0.1,57,0,57.7c-0.4,0.1-7.9,0.2-8.8,0.1c0,0,0,0,0,0c0,0,0,0,0,0c0-0.1,0-0.3,0-0.4
				c0-19,0-38.1,0-57.1C266.9,49.6,267,49.5,267,49.4z"/>
			<path class="st2" d="M257.9,134.8h-2.1c-1.9-5.8-3.8-11.7-5.6-17.5l-0.1,0c-1.9,5.8-3.8,11.7-5.7,17.5h-2.1l-6.8-20.2h2.2
				l5.7,17.9c0.6-1.4,1-3,1.5-4.4c0.5-1.5,1-3,1.4-4.5c0.5-1.5,1-3,1.4-4.5c0.5-1.5,0.9-3,1.4-4.5h2.1c1.9,6,3.8,11.9,5.7,18
				c0.5-1.3,0.8-2.5,1.2-3.6c0.4-1.2,0.8-2.4,1.2-3.6c0.4-1.2,0.7-2.4,1.1-3.6c0.4-1.2,0.8-2.4,1.1-3.6c0.4-1.2,0.8-2.4,1.1-3.6h2.1
				L257.9,134.8z"/>
			<path class="st2" d="M222.2,124.5c0,1.9-0.4,3.5-1.3,5c-1.7,3-4.2,4.8-7.6,5.3c-3.8,0.6-7.2-0.5-9.7-3.5
				c-5.2-6.2-2-14.8,5.4-16.7c3.8-0.9,7.2-0.1,10.1,2.6C221,119.1,222.2,121.8,222.2,124.5z M220.1,124.7c0.1-4.7-3.9-8.5-8.5-8.5
				c-4.7,0-8.6,3.8-8.6,8.4c0,4.3,3.5,8.6,8.5,8.7C216.6,133.2,220.2,128.8,220.1,124.7L220.1,124.7z"/>
			<path class="st2" d="M180.7,127.8l4.8,7c-0.8,0-1.5,0-2.2,0c-0.1,0-0.3-0.2-0.4-0.3c-0.7-1.1-1.4-2.1-2.1-3.2
				c-0.6-0.9-1.2-1.8-1.8-2.8c-0.1-0.2-0.3-0.3-0.5-0.3c-2.1,0-4.2,0-6.3,0c-0.1,0-0.2,0-0.4,0c0,0.7,0,1.4,0,2.1c0,0.7,0,1.5,0,2.2
				v2.2h-2v-20.2c0.1,0,0.1,0,0.2,0c2.8,0,5.5,0,8.3,0c1.4,0,2.7,0.3,3.9,1c1.7,1,2.7,2.4,3,4.4c0.2,1.2,0.1,2.5-0.2,3.6
				c-0.4,1.3-1.1,2.4-2.2,3.2c-0.5,0.3-1.1,0.5-1.6,0.8C181,127.7,180.9,127.7,180.7,127.8z M171.9,126.4c0.1,0,0.2,0,0.3,0
				c1.9,0,3.9,0,5.8,0c0.9,0,1.8-0.2,2.6-0.5c1.4-0.6,2.3-1.6,2.7-3.1c0.1-0.6,0.2-1.2,0.2-1.9c0-2-1.1-3.4-2.9-4.1
				c-1-0.4-2-0.5-3.1-0.5c-1.7,0-3.4,0-5.1,0c-0.2,0-0.3,0-0.5,0L171.9,126.4z"/>
			<path class="st2" d="M323.2,123.7v-9.2h1.9c0.1,0.4,0.2,19.4,0,20.2h-1.9v-9c-0.1-0.1-0.1-0.1-0.1-0.1c0,0,0,0,0,0
				c-0.1,0-0.2,0-0.3,0c-4,0-8,0-12.1,0c-0.1,0-0.1,0-0.2,0.1v9.1h-1.9c0,0,0,0,0,0c0,0,0,0,0,0c0-0.1,0-0.1,0-0.2
				c0-6.6,0-13.1,0-19.7c0-0.1,0-0.2,0-0.2h1.9v9.1C310.9,123.8,322.3,123.9,323.2,123.7z"/>
			<path class="st2" d="M150,124.9h1.7c0,0.2,0,0.3,0,0.4c0,2.2,0,4.4,0,6.5c0,0.3-0.1,0.5-0.4,0.7c-1.6,1.2-3.5,2-5.4,2.2
				c-3.4,0.5-6.4-0.4-8.8-2.7c-5.1-4.8-4.3-12.8,1.8-16.3c3.9-2.3,9.2-1.9,12.7,1c0.1,0.1,0.2,0.1,0.3,0.2l-1.2,1.4
				c-0.2-0.1-0.3-0.2-0.4-0.3c-3.1-2.5-7.8-2.9-11.2-0.2c-3.7,2.9-4.3,8.2-1.4,11.9c2.5,3.1,6.8,4.2,10.6,2.4
				c0.5-0.2,0.9-0.5,1.4-0.7c0.3-0.1,0.4-0.4,0.4-0.7c0-1.8,0-3.6,0-5.3V124.9z"/>
			<path class="st2" d="M286.1,116.3v18.5h-2c0-1.2,0-2.4,0-3.7c0-1.2,0-2.5,0-3.7v-11.1c-2.2,0-4.4,0-6.7,0v-1.7
				c0.4-0.1,14.8-0.1,15.4,0v1.7L286.1,116.3z"/>
			<g>
				<rect x="134" y="141.7" class="st2" width="191.4" height="17.8"/>
			</g>
		</g>
	</g>
	<g>
		<path class="st8" d="M150.4,150.8v4.2h-1.1v-9.4h2c0.7,0,1.2,0,1.5,0.1c0.3,0.1,0.6,0.2,0.8,0.4c0.3,0.2,0.5,0.5,0.7,0.9
			c0.2,0.4,0.3,0.8,0.3,1.2c0,0.5-0.1,0.9-0.3,1.2c-0.2,0.4-0.4,0.7-0.7,0.9c-0.2,0.2-0.5,0.3-0.8,0.4c-0.3,0.1-0.8,0.1-1.5,0.1
			h-0.3H150.4z M150.4,149.8h0.6c1,0,1.6-0.1,1.9-0.3c0.3-0.2,0.5-0.6,0.5-1.2c0-0.6-0.2-1-0.5-1.3c-0.3-0.2-1-0.4-1.9-0.4h-0.6
			V149.8z"/>
		<path class="st8" d="M172.4,155v-9.4h2.2c0.6,0,1.1,0,1.4,0.1c0.3,0.1,0.6,0.2,0.8,0.4c0.3,0.2,0.5,0.5,0.6,0.9
			c0.2,0.4,0.2,0.8,0.2,1.2c0,0.8-0.2,1.4-0.6,1.8c-0.4,0.4-1.1,0.6-1.9,0.6H175l3.6,4.5h-1.4l-3.4-4.5h-0.2v4.5H172.4z
			 M173.5,146.6v3.2h0.9c0.9,0,1.5-0.1,1.8-0.3c0.3-0.2,0.4-0.6,0.4-1.2c0-0.6-0.2-1-0.5-1.3c-0.3-0.2-0.9-0.4-1.7-0.4H173.5z"/>
		<path class="st8" d="M205.6,150.3c0,0.7-0.1,1.3-0.4,1.9c-0.2,0.6-0.6,1.1-1.1,1.6c-0.5,0.5-1,0.8-1.6,1.1
			c-0.6,0.3-1.3,0.4-1.9,0.4s-1.3-0.1-1.9-0.4c-0.6-0.3-1.2-0.6-1.6-1.1c-0.5-0.5-0.8-1-1.1-1.6c-0.3-0.6-0.4-1.2-0.4-1.9
			c0-0.7,0.1-1.3,0.4-1.9c0.3-0.6,0.6-1.1,1.1-1.6c0.5-0.5,1-0.8,1.6-1.1c0.6-0.2,1.3-0.4,1.9-0.4c0.7,0,1.3,0.1,1.9,0.4
			c0.6,0.2,1.2,0.6,1.6,1.1c0.5,0.5,0.8,1,1.1,1.6C205.5,149,205.6,149.7,205.6,150.3z M200.6,154.2c0.5,0,1-0.1,1.5-0.3
			c0.5-0.2,0.9-0.5,1.3-0.9c0.4-0.4,0.7-0.8,0.8-1.3c0.2-0.5,0.3-1,0.3-1.5c0-0.5-0.1-1-0.3-1.5c-0.2-0.5-0.5-0.9-0.8-1.3
			c-0.4-0.4-0.8-0.7-1.3-0.8c-0.5-0.2-1-0.3-1.5-0.3c-0.5,0-1,0.1-1.5,0.3c-0.5,0.2-0.9,0.5-1.2,0.8c-0.4,0.4-0.7,0.8-0.8,1.3
			c-0.2,0.5-0.3,1-0.3,1.5c0,0.5,0.1,1,0.3,1.5c0.2,0.5,0.5,0.9,0.8,1.3c0.4,0.4,0.8,0.7,1.3,0.9C199.6,154.1,200,154.2,200.6,154.2
			z"/>
		<path class="st8" d="M225.7,145.6h1.1v7.3c0,0.8-0.2,1.4-0.5,1.8c-0.4,0.4-0.9,0.6-1.6,0.6c-0.4,0-0.7-0.1-1-0.2
			c-0.3-0.2-0.6-0.4-0.9-0.7l0.7-0.7c0.2,0.2,0.4,0.4,0.6,0.5s0.4,0.2,0.6,0.2c0.3,0,0.6-0.1,0.7-0.4s0.2-0.8,0.2-1.5V145.6z"/>
		<path class="st8" d="M245.5,155v-9.4h5v1h-3.8v2.7h3.8v1h-3.8v3.6h3.8v1H245.5z"/>
		<path class="st8" d="M276.5,147.9c-0.5-0.5-0.9-0.9-1.4-1.1c-0.5-0.2-1.1-0.4-1.7-0.4c-0.5,0-1,0.1-1.5,0.3
			c-0.5,0.2-0.9,0.5-1.2,0.8c-0.4,0.4-0.6,0.8-0.8,1.3c-0.2,0.5-0.3,1-0.3,1.5c0,0.4,0.1,0.8,0.2,1.2c0.1,0.4,0.3,0.7,0.5,1
			c0.4,0.5,0.8,0.9,1.4,1.2c0.6,0.3,1.1,0.4,1.8,0.4c0.6,0,1.2-0.1,1.7-0.4c0.5-0.2,1-0.6,1.4-1.1v1.5c-0.5,0.3-1,0.6-1.5,0.8
			c-0.5,0.2-1.1,0.3-1.7,0.3c-0.5,0-1-0.1-1.5-0.2c-0.5-0.1-0.9-0.4-1.3-0.6c-0.7-0.5-1.2-1.1-1.6-1.8c-0.4-0.7-0.5-1.5-0.5-2.3
			c0-0.7,0.1-1.4,0.4-2c0.2-0.6,0.6-1.1,1.1-1.6c0.5-0.5,1-0.8,1.6-1c0.6-0.2,1.2-0.3,1.9-0.3c0.5,0,1.1,0.1,1.6,0.2
			c0.5,0.2,1,0.4,1.5,0.8V147.9z"/>
		<path class="st8" d="M296.5,155v-8.4h-2.7v-1.1h6.4v1.1h-2.7v8.4H296.5z"/>
	</g>
</g>
</svg>
